<?xml version="1.0" encoding="UTF-8"?>
<svg width="800" height="600" viewBox="0 0 800 600" xmlns="http://www.w3.org/2000/svg">
  <!-- Background shapes -->
  <rect x="0" y="0" width="800" height="600" fill="#f8f9fa" />
  
  <!-- Decorative elements -->
  <circle cx="650" cy="150" r="100" fill="#0a3156" opacity="0.8" />
  <circle cx="150" cy="450" r="120" fill="#ff6b5a" opacity="0.6" />
  <circle cx="400" cy="300" r="80" fill="#2ad9c5" opacity="0.7" />
  
  <!-- Additional decorative elements -->
  <path d="M50,200 Q200,100 350,200 T650,200" stroke="#0a3156" stroke-width="8" fill="none" opacity="0.5" />
  <path d="M150,400 Q300,500 450,400 T750,400" stroke="#ff6b5a" stroke-width="8" fill="none" opacity="0.5" />
  
  <!-- Geometric shapes -->
  <rect x="550" y="350" width="180" height="180" rx="20" fill="#0a3156" opacity="0.7" />
  <rect x="70" y="100" width="150" height="150" rx="20" fill="#2ad9c5" opacity="0.7" />
  
  <!-- Pharmacy icon simplified -->
  <g transform="translate(350, 250)">
    <rect x="-40" y="-60" width="80" height="120" rx="10" fill="#ff6b5a" />
    <rect x="-30" y="-50" width="60" height="20" rx="5" fill="white" />
    <rect x="-30" y="-20" width="60" height="20" rx="5" fill="white" />
    <rect x="-30" y="10" width="60" height="20" rx="5" fill="white" />
    <rect x="-30" y="40" width="60" height="10" rx="5" fill="white" />
  </g>
</svg> 