<svg width="135" height="40" viewBox="0 0 135 40" fill="none" xmlns="http://www.w3.org/2000/svg">
  <rect width="135" height="40" rx="7" fill="#000000"/>
  <path d="M27.4 20.23C27.38 17.09 30.01 15.66 30.12 15.59C28.71 13.48 26.53 13.22 25.76 13.2C23.91 13.01 22.13 14.3 21.2 14.3C20.26 14.3 18.81 13.22 17.26 13.25C15.27 13.27 13.42 14.39 12.41 16.16C10.33 19.75 11.87 25.01 13.87 27.99C14.87 29.45 16.04 31.09 17.61 31.03C19.15 30.96 19.7 30.07 21.53 30.07C23.36 30.07 23.86 31.03 25.47 30.99C27.12 30.96 28.12 29.5 29.1 28.03C30.27 26.36 30.75 24.7 30.77 24.61C30.74 24.6 27.42 23.4 27.4 20.23" fill="white"/>
  <path d="M24.52 11.27C25.33 10.27 25.88 8.91 25.73 7.53C24.58 7.59 23.17 8.32 22.33 9.31C21.58 10.18 20.91 11.59 21.08 12.94C22.35 13.03 23.69 12.28 24.52 11.27" fill="white"/>
  <path d="M53.65 30.95H51.46L50.27 27.28H45.63L44.5 30.95H42.36L46.93 17.61H49.05L53.65 30.95ZM49.93 25.69L48.61 21.86C48.47 21.47 48.19 20.49 47.79 18.93H47.75C47.61 19.61 47.35 20.59 46.98 21.86L45.68 25.69H49.93Z" fill="white"/>
  <path d="M65.79 26.12C65.79 27.78 65.31 29.06 64.36 29.95C63.51 30.77 62.42 31.17 61.09 31.17C59.65 31.17 58.62 30.73 58.01 29.86H57.97V35.1H55.93V24.25C55.93 23.26 55.9 22.25 55.85 21.23H57.66L57.78 22.86H57.82C58.59 21.63 59.8 21.01 61.45 21.01C62.75 21.01 63.8 21.45 64.62 22.32C65.4 23.2 65.79 24.49 65.79 26.12ZM63.71 26.17C63.71 25.17 63.49 24.35 63.05 23.73C62.56 23.08 61.91 22.75 61.07 22.75C60.5 22.75 59.98 22.93 59.51 23.29C59.04 23.65 58.73 24.12 58.59 24.7C58.52 25 58.48 25.24 58.48 25.45V27.06C58.48 27.8 58.71 28.42 59.17 28.92C59.63 29.43 60.21 29.68 60.94 29.68C61.8 29.68 62.46 29.35 62.94 28.7C63.46 28.04 63.71 27.19 63.71 26.17Z" fill="white"/>
  <path d="M77.96 26.12C77.96 27.78 77.48 29.06 76.53 29.95C75.69 30.77 74.6 31.17 73.26 31.17C71.82 31.17 70.8 30.73 70.18 29.86H70.15V35.1H68.11V24.25C68.11 23.26 68.08 22.25 68.03 21.23H69.83L69.96 22.86H70C70.76 21.63 71.98 21.01 73.63 21.01C74.92 21.01 75.98 21.45 76.79 22.32C77.57 23.2 77.96 24.49 77.96 26.12ZM75.88 26.17C75.88 25.17 75.66 24.35 75.23 23.73C74.74 23.08 74.08 22.75 73.24 22.75C72.67 22.75 72.16 22.93 71.68 23.29C71.21 23.65 70.9 24.12 70.77 24.7C70.7 25 70.66 25.24 70.66 25.45V27.06C70.66 27.8 70.88 28.42 71.34 28.92C71.81 29.43 72.39 29.68 73.12 29.68C73.98 29.68 74.64 29.35 75.12 28.7C75.63 28.04 75.88 27.19 75.88 26.17Z" fill="white"/>
  <path d="M90.97 27.46C90.97 28.5 90.59 29.35 89.84 30C89 30.71 87.83 31.06 86.32 31.06C84.93 31.06 83.8 30.8 82.92 30.27L83.37 28.43C84.3 28.97 85.32 29.24 86.45 29.24C87.22 29.24 87.82 29.07 88.24 28.73C88.66 28.39 88.87 27.93 88.87 27.37C88.87 26.86 88.7 26.43 88.34 26.09C88 25.74 87.4 25.43 86.56 25.13C84.31 24.31 83.18 23.12 83.18 21.58C83.18 20.57 83.58 19.75 84.37 19.09C85.17 18.44 86.22 18.11 87.54 18.11C88.7 18.11 89.68 18.31 90.46 18.72L89.97 20.53C89.25 20.13 88.4 19.93 87.43 19.93C86.72 19.93 86.15 20.11 85.75 20.44C85.38 20.79 85.2 21.17 85.2 21.67C85.2 22.17 85.39 22.57 85.78 22.89C86.12 23.19 86.76 23.51 87.68 23.84C88.79 24.24 89.6 24.71 90.12 25.27C90.69 25.82 90.97 26.54 90.97 27.46Z" fill="white"/>
  <path d="M98.8 22.84H96.57V27.72C96.57 28.8 96.97 29.33 97.77 29.33C98.15 29.33 98.47 29.31 98.71 29.24L98.78 30.87C98.34 31.02 97.76 31.09 97.05 31.09C96.16 31.09 95.46 30.83 94.96 30.31C94.46 29.79 94.21 28.93 94.21 27.72V22.83H92.85V21.23H94.21V19.45L96.57 18.8V21.23H98.8V22.84Z" fill="white"/>
  <path d="M110.99 26.15C110.99 27.64 110.54 28.87 109.64 29.82C108.7 30.8 107.43 31.29 105.84 31.29C104.33 31.29 103.13 30.81 102.24 29.87C101.35 28.93 100.9 27.73 100.9 26.31C100.9 24.81 101.36 23.58 102.28 22.64C103.19 21.69 104.44 21.22 106.02 21.22C107.53 21.22 108.75 21.7 109.66 22.66C110.54 23.59 110.99 24.77 110.99 26.15ZM108.85 26.21C108.85 25.36 108.66 24.64 108.29 24.05C107.84 23.33 107.19 22.96 106.34 22.96C105.46 22.96 104.8 23.33 104.35 24.05C103.98 24.64 103.79 25.38 103.79 26.25C103.79 27.1 103.98 27.83 104.35 28.42C104.81 29.14 105.46 29.5 106.32 29.5C107.16 29.5 107.81 29.13 108.28 28.4C108.66 27.8 108.85 27.07 108.85 26.21Z" fill="white"/>
  <path d="M118.4 23.11C118.18 23.06 117.94 23.04 117.68 23.04C116.9 23.04 116.3 23.34 115.88 23.94C115.5 24.48 115.32 25.15 115.32 25.96V30.96H113.28L113.3 24.09C113.3 23 113.27 22.02 113.22 21.13H115.07L115.15 23.01H115.22C115.44 22.4 115.8 21.91 116.29 21.54C116.76 21.19 117.26 21.02 117.81 21.02C118.03 21.02 118.23 21.03 118.4 21.06V23.11Z" fill="white"/>
  <path d="M128.48 25.73C128.48 26.04 128.45 26.31 128.41 26.54H122.15C122.18 27.46 122.48 28.16 123.07 28.64C123.6 29.07 124.29 29.29 125.15 29.29C126.12 29.29 126.99 29.14 127.78 28.84L128.09 30.33C127.17 30.72 126.09 30.91 124.86 30.91C123.38 30.91 122.21 30.48 121.33 29.61C120.46 28.75 120.02 27.56 120.02 26.05C120.02 24.57 120.42 23.33 121.24 22.4C122.09 21.42 123.23 20.93 124.64 20.93C126.04 20.93 127.09 21.42 127.79 22.4C128.25 23.15 128.48 24.08 128.48 25.73ZM126.52 25.09C126.53 24.48 126.4 23.96 126.12 23.53C125.76 22.97 125.22 22.68 124.5 22.68C123.83 22.68 123.3 22.96 122.91 23.51C122.59 23.94 122.4 24.47 122.32 25.09H126.52Z" fill="white"/>
  <path d="M48.66 13.31H47.02L46.15 10.61H42.37L41.54 13.31H39.95L43.67 2.79H44.9L48.66 13.31ZM45.82 9.31L44.69 6.17C44.58 5.85 44.36 5.07 44.02 3.81H43.99C43.86 4.37 43.66 5.15 43.35 6.17L42.23 9.31H45.82Z" fill="white"/>
  <path d="M59.09 8.02C59.09 9.52 58.7 10.66 57.94 11.45C57.28 12.13 56.45 12.47 55.46 12.47C54.4 12.47 53.62 12.11 53.12 11.38H53.1V15.81H51.56V6.86C51.56 6.06 51.54 5.24 51.5 4.39H52.84L52.95 5.71H52.97C53.59 4.72 54.53 4.23 55.77 4.23C56.73 4.23 57.54 4.59 58.19 5.32C58.79 6.05 59.09 7.07 59.09 8.02ZM57.51 8.06C57.51 7.24 57.33 6.56 56.96 6.04C56.57 5.5 56.03 5.23 55.36 5.23C54.9 5.23 54.47 5.38 54.09 5.67C53.71 5.97 53.45 6.35 53.34 6.83C53.28 7.09 53.24 7.29 53.24 7.46V8.8C53.24 9.41 53.43 9.93 53.8 10.34C54.17 10.75 54.66 10.95 55.26 10.95C55.95 10.95 56.48 10.69 56.87 10.17C57.3 9.64 57.51 8.93 57.51 8.06Z" fill="white"/>
  <path d="M69.97 8.02C69.97 9.52 69.59 10.66 68.82 11.45C68.16 12.13 67.33 12.47 66.34 12.47C65.28 12.47 64.5 12.11 64.01 11.38H63.98V15.81H62.44V6.86C62.44 6.06 62.42 5.24 62.38 4.39H63.73L63.83 5.71H63.85C64.47 4.72 65.41 4.23 66.65 4.23C67.61 4.23 68.43 4.59 69.07 5.32C69.67 6.05 69.97 7.07 69.97 8.02ZM68.39 8.06C68.39 7.24 68.21 6.56 67.84 6.04C67.45 5.5 66.91 5.23 66.24 5.23C65.78 5.23 65.36 5.38 64.97 5.67C64.59 5.97 64.34 6.35 64.22 6.83C64.16 7.09 64.12 7.29 64.12 7.46V8.8C64.12 9.41 64.31 9.93 64.68 10.34C65.05 10.75 65.54 10.95 66.15 10.95C66.84 10.95 67.37 10.69 67.75 10.17C68.18 9.64 68.39 8.93 68.39 8.06Z" fill="white"/>
  <path d="M82.05 9.08C82.05 9.95 81.74 10.66 81.11 11.19C80.39 11.8 79.37 12.11 78.05 12.11C76.83 12.11 75.84 11.89 75.09 11.46L75.46 10.4C76.27 10.84 77.16 11.06 78.14 11.06C78.78 11.06 79.28 10.92 79.64 10.64C80 10.36 80.18 9.99 80.18 9.54C80.18 9.13 80.04 8.79 79.76 8.51C79.48 8.23 79 7.97 78.31 7.72C76.52 7.05 75.62 6.09 75.62 4.86C75.62 4.02 75.93 3.32 76.56 2.78C77.18 2.25 78.02 1.98 79.06 1.98C80.09 1.98 80.94 2.16 81.59 2.49L81.19 3.58C80.59 3.26 79.88 3.09 79.05 3.09C78.45 3.09 77.99 3.23 77.66 3.5C77.37 3.76 77.22 4.06 77.22 4.47C77.22 4.86 77.37 5.19 77.67 5.45C77.93 5.72 78.44 5.99 79.19 6.27C80.12 6.6 80.79 6.97 81.21 7.41C81.78 7.85 82.05 8.43 82.05 9.08Z" fill="white"/>
  <path d="M88.79 5.3H87.02V9.32C87.02 10.22 87.35 10.67 88.01 10.67C88.32 10.67 88.58 10.65 88.78 10.59L88.83 11.95C88.48 12.07 88.02 12.13 87.44 12.13C86.71 12.13 86.14 11.92 85.73 11.5C85.33 11.07 85.12 10.36 85.12 9.37V5.3H84.02V3.99H85.12V2.54L87.02 2.01V3.99H88.79V5.3Z" fill="white"/>
  <path d="M99.25 8.04C99.25 9.24 98.88 10.24 98.15 11.01C97.38 11.83 96.36 12.23 95.1 12.23C93.88 12.23 92.91 11.84 92.17 11.06C91.43 10.27 91.06 9.3 91.06 8.15C91.06 6.94 91.44 5.94 92.19 5.18C92.95 4.41 93.96 4.03 95.22 4.03C96.45 4.03 97.43 4.43 98.18 5.2C98.89 5.98 99.25 6.92 99.25 8.04ZM97.61 8.08C97.61 7.38 97.46 6.78 97.15 6.28C96.78 5.68 96.25 5.38 95.56 5.38C94.85 5.38 94.3 5.68 93.93 6.28C93.62 6.78 93.47 7.39 93.47 8.11C93.47 8.81 93.62 9.41 93.93 9.91C94.31 10.51 94.85 10.81 95.55 10.81C96.23 10.81 96.76 10.51 97.14 9.89C97.46 9.38 97.61 8.78 97.61 8.08Z" fill="white"/>
  <path d="M105.33 5.49C105.15 5.45 104.95 5.43 104.75 5.43C104.11 5.43 103.62 5.68 103.28 6.17C102.98 6.62 102.83 7.16 102.83 7.81V11.96H100.93L100.95 6.55C100.95 5.66 100.93 4.87 100.88 4.15H102.43L102.49 5.67H102.55C102.74 5.17 103.02 4.77 103.42 4.47C103.8 4.2 104.2 4.06 104.65 4.06C104.82 4.06 104.98 4.07 105.12 4.1V5.49H105.33Z" fill="white"/>
  <path d="M113.37 7.61C113.37 7.86 113.35 8.08 113.31 8.26H107.97C108 8.99 108.26 9.55 108.73 9.95C109.15 10.29 109.72 10.47 110.43 10.47C111.22 10.47 111.93 10.34 112.58 10.09L112.84 11.29C112.11 11.61 111.22 11.76 110.19 11.76C108.97 11.76 108.02 11.4 107.31 10.69C106.61 9.98 106.26 9.01 106.26 7.8C106.26 6.61 106.59 5.61 107.25 4.84C107.94 4.02 108.88 3.62 110.07 3.62C111.24 3.62 112.1 4.02 112.68 4.82C113.13 5.43 113.37 6.18 113.37 7.61ZM111.72 7.09C111.73 6.6 111.63 6.18 111.4 5.84C111.1 5.39 110.67 5.16 110.09 5.16C109.55 5.16 109.11 5.38 108.79 5.82C108.53 6.16 108.38 6.58 108.31 7.09H111.72Z" fill="white"/>
</svg> 