<svg width="150" height="40" viewBox="0 0 150 40" fill="none" xmlns="http://www.w3.org/2000/svg">
  <!-- Capsule Plus Sign -->
  <g>
    <rect x="6" y="13" width="6" height="18" rx="2" fill="#f04e37"/>
    <rect x="0" y="19" width="18" height="6" rx="2" fill="#f04e37"/>
    <rect x="6" y="13" width="6" height="18" rx="2" fill="#0a3156"/>
    <rect x="0" y="19" width="18" height="6" rx="2" fill="#1eb5be"/>
    <rect x="0" y="19" width="18" height="6" rx="2" fill="#ffd600"/>
    <rect x="6" y="13" width="6" height="18" rx="2" fill="#f04e37"/>
  </g>
  
  <!-- Capsule Text -->
  <path d="M35 14.5C35 20.5 29.5 25 24 25C18.5 25 13 20.5 13 14.5C13 8.5 18.5 4 24 4C29.5 4 35 8.5 35 14.5Z" fill="none" stroke="#0a3156" stroke-width="3"/>
  <path d="M45 10H51.5V29H45V10Z" fill="#0a3156"/>
  <path d="M55 14.5H61.5V17C62.5 15 65 14 66.5 14C70.5 14 73 16.5 73 20.5V29H66.5V21.5C66.5 19.5 65.5 18.5 64 18.5C62 18.5 61 19.5 61 22V29H55V14.5Z" fill="#0a3156"/>
  <path d="M75 21.5C75 17 79 14 83.5 14C88 14 92 17 92 21.5C92 26 88 29 83.5 29C79 29 75 26 75 21.5ZM86 21.5C86 19.5 85 18 83.5 18C82 18 81 19.5 81 21.5C81 23.5 82 25 83.5 25C85 25 86 23.5 86 21.5Z" fill="#0a3156"/>
  <path d="M114 14.5L108 29H103L97 14.5H103.5L106.5 23.5L109.5 14.5H114Z" fill="#0a3156"/>
  <path d="M115 21.5C115 17 119 14 123 14C128 14 131 17 131 22V23H121C121.5 24.5 123 25.5 124.5 25.5C126 25.5 127.5 25 128.5 24L131.5 27C129.5 28.5 127 29 124.5 29C119 29 115 26 115 21.5ZM121 19.5H125.5C125.5 18 124.5 17 123 17C121.5 17 121 18 121 19.5Z" fill="#0a3156"/>
  <path d="M147 14.5H152V29H147V27C146 28.5 144 29 142.5 29C138.5 29 134.5 26 134.5 21.5C134.5 17 138.5 14 142.5 14C144 14 146 14.5 147 16V14.5ZM146.5 21.5C146.5 19.5 145 18 143 18C141 18 139.5 19.5 139.5 21.5C139.5 23.5 141 25 143 25C145 25 146.5 23.5 146.5 21.5Z" fill="#0a3156"/>
  <path d="M154 14.5H159.5V29H154V14.5ZM154 8.5H159.5V13H154V8.5Z" fill="#0a3156"/>
  <path d="M23 23C24 23 25 22.9 26 22.7V6.3C25 6.1 24 6 23 6C18 6 15 9 15 14.5C15 20 18 23 23 23Z" fill="#0a3156"/>
</svg> 