<svg width="120" height="60" viewBox="0 0 120 60" fill="none" xmlns="http://www.w3.org/2000/svg">
  <path d="M24.2 26.06C24.2 22.7 27.16 19.92 30.8 19.92C34.16 19.92 36.28 21.92 37.04 24.62L33.68 25.62C33.32 24.14 32.28 23.28 30.76 23.28C29 23.28 27.72 24.5 27.72 26.06C27.72 27.62 29 28.84 30.76 28.84C32.28 28.84 33.36 27.98 33.68 26.5L37.04 27.5C36.28 30.2 34.16 32.2 30.8 32.2C27.16 32.2 24.2 29.42 24.2 26.06Z" fill="#006BB6"/>
  <path d="M38.2 19.92H41.8V32.2H38.2V19.92Z" fill="#006BB6"/>
  <path d="M44.304 25.92C44.304 24.52 45.384 23.56 46.824 23.56C48.224 23.56 49.344 24.52 49.344 25.92C49.344 27.28 48.224 28.28 46.824 28.28C45.384 28.28 44.304 27.28 44.304 25.92ZM40.744 25.92C40.744 29.16 43.344 31.6 46.784 31.6C50.264 31.6 52.904 29.16 52.904 25.92C52.904 22.68 50.264 20.24 46.784 20.24C43.344 20.24 40.744 22.68 40.744 25.92Z" fill="#006BB6"/>
  <path d="M54.24 20.56H57.8V22.04H57.86C58.58 20.96 59.82 20.24 61.3 20.24C64.02 20.24 65.78 22.2 65.78 24.92V31.28H62.22V25.48C62.22 24.2 61.46 23.32 60.14 23.32C58.86 23.32 57.8 24.2 57.8 25.96V31.28H54.24V20.56Z" fill="#006BB6"/>
  <path d="M67.52 20.56H71.08V31.28H67.52V20.56ZM67.52 16.48H71.08V19.44H67.52V16.48Z" fill="#006BB6"/>
  <path d="M73 20.56H76.56V22.04H76.62C77.34 20.96 78.58 20.24 80.06 20.24C82.78 20.24 84.54 22.2 84.54 24.92V31.28H80.98V25.48C80.98 24.2 80.22 23.32 78.9 23.32C77.62 23.32 76.56 24.2 76.56 25.96V31.28H73V20.56Z" fill="#006BB6"/>
  <path d="M92.52 27.26L90.48 29.3V31.28H86.92V16.48H90.48V25.1L94.68 20.56H99.12L94.36 25.56L99.36 31.28H94.84L92.52 27.26Z" fill="#006BB6"/>
</svg> 