<svg width="80" height="80" viewBox="0 0 80 80" fill="none" xmlns="http://www.w3.org/2000/svg">
  <path d="M60 22.5H52.5V10H15C12.25 10 10 12.25 10 15V55H15C15 60.5 19.5 65 25 65C30.5 65 35 60.5 35 55H45C45 60.5 49.5 65 55 65C60.5 65 65 60.5 65 55H70V37.5L60 22.5ZM25 60C22.25 60 20 57.75 20 55C20 52.25 22.25 50 25 50C27.75 50 30 52.25 30 55C30 57.75 27.75 60 25 60ZM58.75 32.5H52.5V25H57.5L58.75 32.5ZM55 60C52.25 60 50 57.75 50 55C50 52.25 52.25 50 55 50C57.75 50 60 52.25 60 55C60 57.75 57.75 60 55 60Z" fill="#4A90E2"/>
  <circle cx="40" cy="40" r="39" stroke="#4A90E2" stroke-width="2"/>
</svg> 