<svg width="500" height="400" viewBox="0 0 500 400" fill="none" xmlns="http://www.w3.org/2000/svg">
  <!-- Background Elements -->
  <circle cx="300" cy="150" r="150" fill="#E6F0FF" opacity="0.5"/>
  <circle cx="80" cy="320" r="80" fill="#E6F0FF" opacity="0.3"/>
  
  <!-- Doctor Figure -->
  <g>
    <!-- Lab Coat -->
    <path d="M230 320C230 260 260 220 280 190C300 220 330 260 330 320H230Z" fill="white"/>
    <path d="M230 320C230 260 260 220 280 190C300 220 330 260 330 320H230Z" stroke="#0066FF" stroke-width="2"/>
    
    <!-- Neck -->
    <rect x="270" y="170" width="20" height="30" rx="10" fill="#F8D5C8"/>
    
    <!-- Head -->
    <circle cx="280" cy="140" r="40" fill="#F8D5C8"/>
    
    <!-- Hair -->
    <path d="M250 120C250 100 265 90 280 90C295 90 310 100 310 120C310 140 305 140 305 140H255C255 140 250 140 250 120Z" fill="#333333"/>
    
    <!-- Eyes -->
    <circle cx="265" cy="135" r="5" fill="#333333"/>
    <circle cx="295" cy="135" r="5" fill="#333333"/>
    
    <!-- Smile -->
    <path d="M265 155C265 155 272 165 280 165C288 165 295 155 295 155" stroke="#333333" stroke-width="2" stroke-linecap="round"/>
    
    <!-- Stethoscope -->
    <path d="M250 240C250 240 220 260 220 280C220 300 240 310 240 310" stroke="#0066FF" stroke-width="4" stroke-linecap="round"/>
    <circle cx="220" cy="290" r="10" fill="#0066FF"/>
    
    <!-- Arms -->
    <path d="M230 250C230 250 200 270 180 260" stroke="#F8D5C8" stroke-width="20" stroke-linecap="round"/>
    <path d="M330 250C330 250 360 280 380 270" stroke="#F8D5C8" stroke-width="20" stroke-linecap="round"/>
    
    <!-- Tablet -->
    <rect x="340" y="260" width="60" height="80" rx="5" fill="#333333"/>
    <rect x="345" y="265" width="50" height="70" rx="2" fill="#FFFFFF"/>
    
    <!-- Tablet Content -->
    <rect x="350" y="275" width="40" height="5" rx="2" fill="#0066FF"/>
    <rect x="350" y="285" width="30" height="5" rx="2" fill="#333333"/>
    <rect x="350" y="295" width="40" height="5" rx="2" fill="#333333"/>
    <rect x="350" y="305" width="25" height="5" rx="2" fill="#333333"/>
    <rect x="350" y="315" width="35" height="5" rx="2" fill="#333333"/>
    
    <!-- Hand Holding Tablet -->
    <path d="M390 300C390 300 395 310 385 320C375 330 340 310 340 310" fill="#F8D5C8"/>
  </g>
  
  <!-- Medical Icons -->
  <g opacity="0.7">
    <circle cx="120" cy="120" r="20" fill="#0066FF" opacity="0.2"/>
    <path d="M110 120H130M120 110V130" stroke="#0066FF" stroke-width="3" stroke-linecap="round"/>
  </g>
  
  <g opacity="0.7">
    <circle cx="420" cy="100" r="20" fill="#0066FF" opacity="0.2"/>
    <path d="M410 100H430M415 95H425M410 105H430" stroke="#0066FF" stroke-width="2" stroke-linecap="round"/>
  </g>
  
  <g opacity="0.7">
    <circle cx="400" cy="340" r="20" fill="#0066FF" opacity="0.2"/>
    <path d="M390 335L410 345M410 335L390 345" stroke="#0066FF" stroke-width="2" stroke-linecap="round"/>
  </g>
  
  <g opacity="0.7">
    <circle cx="150" cy="240" r="20" fill="#0066FF" opacity="0.2"/>
    <path d="M145 235H155M145 240H155M145 245H155" stroke="#0066FF" stroke-width="2" stroke-linecap="round"/>
  </g>
</svg> 