<svg width="120" height="60" viewBox="0 0 120 60" fill="none" xmlns="http://www.w3.org/2000/svg">
  <path d="M22 15H98C100.209 15 102 16.7909 102 19V41C102 43.2091 100.209 45 98 45H22C19.7909 45 18 43.2091 18 41V19C18 16.7909 19.7909 15 22 15Z" fill="#DE352A"/>
  <path d="M34.88 30C34.88 25.12 38.764 22 44.2 22H50.036V25.12H44.272C41.248 25.12 39.364 26.96 39.364 29.928C39.364 33.08 41.56 34.884 44.272 34.884H50.036V38H44.056C38.548 38 34.88 34.844 34.88 30Z" fill="white"/>
  <path d="M52.816 22H57.084V38H52.816V22Z" fill="white"/>
  <path d="M59.872 22H65.132C71.888 22 75.412 25.84 75.412 30C75.412 34.16 71.888 38 65.132 38H59.872V22ZM64.676 34.84H65.132C69.032 34.84 70.844 32.44 70.844 30C70.844 27.56 69.032 25.16 65.132 25.16H64.676V34.84Z" fill="white"/>
  <path d="M83.24 22H78.76V38H83.24V22Z" fill="white"/>
  <path d="M85.752 22H90.092L98.452 31.76V22H102.92V38H98.556L90.22 28.2V38H85.752V22Z" fill="white"/>
</svg> 