<svg width="135" height="40" viewBox="0 0 135 40" fill="none" xmlns="http://www.w3.org/2000/svg">
  <rect width="135" height="40" rx="7" fill="#000000"/>
  <path d="M68.14 21.75C65.77 21.75 63.83 23.58 63.83 26.05C63.83 28.49 65.77 30.35 68.14 30.35C70.51 30.35 72.45 28.49 72.45 26.05C72.45 23.58 70.51 21.75 68.14 21.75ZM68.14 28.69C66.77 28.69 65.58 27.59 65.58 26.05C65.58 24.48 66.77 23.41 68.14 23.41C69.51 23.41 70.69 24.48 70.69 26.05C70.69 27.59 69.51 28.69 68.14 28.69ZM58.83 21.75C56.46 21.75 54.52 23.58 54.52 26.05C54.52 28.49 56.46 30.35 58.83 30.35C61.2 30.35 63.14 28.49 63.14 26.05C63.14 23.58 61.2 21.75 58.83 21.75ZM58.83 28.69C57.46 28.69 56.27 27.59 56.27 26.05C56.27 24.48 57.46 23.41 58.83 23.41C60.2 23.41 61.39 24.48 61.39 26.05C61.39 27.59 60.2 28.69 58.83 28.69ZM47.74 23.06V24.9H51.91C51.78 25.9 51.4 26.63 50.83 27.13C50.14 27.75 49.09 28.43 47.74 28.43C45.31 28.43 43.41 26.48 43.41 24.05C43.41 21.62 45.31 19.67 47.74 19.67C49 19.67 49.94 20.16 50.66 20.82L51.97 19.51C50.97 18.56 49.65 17.84 47.74 17.84C44.34 17.84 41.48 20.62 41.48 24.05C41.48 27.48 44.34 30.26 47.74 30.26C49.62 30.26 50.97 29.64 52.03 28.53C53.12 27.45 53.49 25.92 53.49 24.67C53.49 24.28 53.46 23.92 53.4 23.62L47.74 23.06ZM93.09 24.31C92.75 23.47 91.83 21.75 89.6 21.75C87.39 21.75 85.58 23.5 85.58 26.05C85.58 28.43 87.36 30.35 89.8 30.35C91.75 30.35 92.75 29.12 93.19 28.43L91.8 27.49C91.34 28.19 90.73 28.69 89.8 28.69C88.88 28.69 88.23 28.22 87.8 27.32L93.27 25.09L93.09 24.31ZM87.42 25.84C87.39 24.12 88.74 23.38 89.67 23.38C90.39 23.38 90.98 23.75 91.17 24.28L87.42 25.84ZM82.64 30H84.39V18.17H82.64V30ZM79.58 22.71H79.52C79.08 22.19 78.28 21.75 77.27 21.75C75.09 21.75 73.09 23.65 73.09 26.07C73.09 28.47 75.09 30.35 77.27 30.35C78.28 30.35 79.08 29.91 79.52 29.37H79.58V29.91C79.58 31.63 78.67 32.53 77.3 32.53C76.18 32.53 75.49 31.72 75.21 31.02L73.67 31.65C74.12 32.77 75.34 34.2 77.3 34.2C79.4 34.2 81.27 32.9 81.27 29.6V22.1H79.58V22.71ZM77.43 28.69C76.05 28.69 74.83 27.56 74.83 26.07C74.83 24.56 76.05 23.41 77.43 23.41C78.77 23.41 79.89 24.56 79.89 26.07C79.89 27.56 78.77 28.69 77.43 28.69ZM101.7 18.17H97.06V30H98.81V25.41H101.7C103.84 25.41 105.95 23.87 105.95 21.79C105.95 19.71 103.82 18.17 101.7 18.17ZM101.75 23.75H98.81V19.83H101.75C103.16 19.83 104.2 20.88 104.2 21.79C104.2 22.68 103.16 23.75 101.75 23.75ZM113.48 21.73C112.23 21.73 110.92 22.27 110.35 23.6L111.89 24.24C112.26 23.6 112.87 23.39 113.51 23.39C114.42 23.39 115.35 23.94 115.37 24.9V25.07C115.01 24.86 114.34 24.55 113.54 24.55C111.92 24.55 110.26 25.45 110.26 27.1C110.26 28.64 111.62 29.64 113.09 29.64C114.23 29.64 114.88 29.12 115.31 28.49H115.37V29.99H117.05V25.07C117.05 23.06 115.51 21.73 113.48 21.73ZM113.25 28.05C112.65 28.05 111.95 27.76 111.95 27.13C111.95 26.32 112.82 26.02 113.57 26.02C114.23 26.02 114.56 26.19 115 26.43C114.87 27.42 114.07 28.05 113.25 28.05ZM124.31 22.09L122.3 27.39H122.24L120.15 22.09H118.27L121.34 29.65L119.55 33.72H121.37L126.26 22.09H124.31ZM107.5 30H109.25V18.17H107.5V30Z" fill="white"/>
  <path d="M10.44 7.54C10.15 7.84 9.98 8.31 9.98 8.92V31.08C9.98 31.69 10.15 32.15 10.44 32.46L10.53 32.54L23.4 19.66V19.5V19.34L10.53 6.46L10.44 7.54Z" fill="#00C3FF"/>
  <path d="M27.56 23.84L23.4 19.67V19.5V19.34L27.56 15.17L27.67 15.23L32.57 18.02C34.1 18.9 34.1 20.29 32.57 21.17L27.67 23.77L27.56 23.84Z" fill="#FFC900"/>
  <path d="M27.67 23.77L23.4 19.5L10.44 32.46C10.93 32.97 11.73 33.04 12.64 32.53L27.67 23.77Z" fill="#FF3A44"/>
  <path d="M27.67 15.23L12.64 6.47C11.73 5.96 10.93 6.03 10.44 6.54L23.4 19.5L27.67 15.23Z" fill="#48FF48"/>
</svg> 