<svg width="120" height="30" viewBox="0 0 120 30" fill="none" xmlns="http://www.w3.org/2000/svg">
  <path d="M35.73 25.26H37.86V5.4H35.73V25.26Z" fill="#333333"/>
  <path d="M39.99 25.26H42.05V14.93C42.78 14.34 43.45 14.04 44.31 14.04C45.74 14.04 46.41 14.93 46.41 16.77V25.26H48.47V16.47C48.47 13.84 47.27 12.35 44.91 12.35C43.75 12.35 42.78 12.8 41.84 13.6L41.69 12.5H39.99V25.26Z" fill="#333333"/>
  <path d="M53.38 13.15C52.41 13.15 51.69 13.89 51.69 14.86C51.69 15.83 52.41 16.55 53.38 16.55C54.37 16.55 55.09 15.83 55.09 14.86C55.09 13.89 54.37 13.15 53.38 13.15ZM54.37 25.26H52.31V18.03H50.27V16.47H52.31V11.78H54.37V16.47H56.56V18.03H54.37V25.26Z" fill="#333333"/>
  <path d="M56.55 21.72C56.55 24.33 58.29 25.56 60.36 25.56C61.79 25.56 62.91 25.04 63.69 23.87H63.84L64.06 25.26H65.94V17.21C65.94 14.71 65.04 12.35 61.34 12.35C59.94 12.35 58.51 12.68 57.44 13.22L57.74 14.93C58.81 14.45 59.79 14.11 60.95 14.11C62.91 14.11 63.84 15.01 63.87 16.67C59.79 16.8 56.55 17.66 56.55 21.72ZM63.87 19.67V18.18C62.54 18.33 58.61 18.63 58.61 21.57C58.61 22.95 59.46 23.87 60.8 23.87C62.27 23.87 63.2 22.95 63.87 21.92V19.67Z" fill="#333333"/>
  <path d="M70.5 6.06H68.44V25.26H70.5V16.44C71.23 14.79 72.36 14.04 73.81 14.04C74.17 14.04 74.47 14.09 74.72 14.15V12.35C73.16 12.35 71.83 13.04 70.65 14.79L70.5 12.5H68.44V14.04L70.5 13.75V6.06Z" fill="#333333"/>
  <path d="M74.28 18.93C74.28 23.15 76.79 25.56 79.8 25.56C82.77 25.56 85.31 23.15 85.31 18.93C85.31 14.71 82.77 12.35 79.8 12.35C76.79 12.35 74.28 14.71 74.28 18.93ZM83.25 18.93C83.25 22.09 81.88 23.83 79.8 23.83C77.67 23.83 76.34 22.09 76.34 18.93C76.34 15.75 77.67 14.04 79.8 14.04C81.88 14.04 83.25 15.75 83.25 18.93Z" fill="#333333"/>
  <path d="M87.47 25.26H89.53V16.47C90.26 14.93 91.35 14.04 92.5 14.04C93.96 14.04 94.62 14.93 94.62 16.77V25.26H96.69V16.47C97.42 14.93 98.51 14.04 99.67 14.04C101.1 14.04 101.77 14.93 101.77 16.77V25.26H103.83V16.47C103.83 13.84 102.6 12.35 100.25 12.35C98.69 12.35 97.42 13.04 96.17 14.79C95.64 13.22 94.5 12.35 92.83 12.35C91.35 12.35 90.1 13.07 89.04 14.56L88.89 12.5H87.47V25.26Z" fill="#333333"/>
  <path d="M18.92 17.43C18.92 12.2 15.82 9.1 10.52 9.1H5.03V25.78H10.52C15.82 25.78 18.92 22.67 18.92 17.43ZM10.13 23.42H8.14V11.47H10.13C14.32 11.47 15.71 13.73 15.71 17.43C15.71 21.14 14.32 23.42 10.13 23.42Z" fill="#333333"/>
</svg> 