<svg width="120" height="30" viewBox="0 0 120 30" fill="none" xmlns="http://www.w3.org/2000/svg">
  <path d="M10.87 7.34C9.35 7.34 8.13 8.56 8.13 10.09C8.13 11.61 9.35 12.83 10.87 12.83C12.4 12.83 13.62 11.61 13.62 10.09C13.62 8.56 12.4 7.34 10.87 7.34ZM10.87 12.12C9.74 12.12 8.83 11.21 8.83 10.09C8.83 8.96 9.74 8.04 10.87 8.04C12 8.04 12.91 8.96 12.91 10.09C12.91 11.21 12 12.12 10.87 12.12Z" fill="#333333"/>
  <path d="M14.35 9.01H15.27V9.67H15.29C15.55 9.13 16.06 8.91 16.72 8.91V9.86C15.83 9.86 15.29 10.09 15.29 11.29V13.19H14.35V9.01Z" fill="#333333"/>
  <path d="M19.93 12.3H19.91C19.66 12.85 19.21 13.3 18.47 13.3C17.49 13.3 16.89 12.43 16.89 11.09C16.89 9.75 17.49 8.89 18.47 8.89C19.21 8.89 19.66 9.34 19.91 9.88H19.93V6.67H20.87V13.19H19.93V12.3ZM18.71 12.47C19.47 12.47 19.93 11.78 19.93 11.09C19.93 10.4 19.47 9.72 18.71 9.72C17.94 9.72 17.83 10.35 17.83 11.09C17.83 11.84 17.94 12.47 18.71 12.47Z" fill="#333333"/>
  <path d="M22.12 6.67H23.06V13.19H22.12V6.67Z" fill="#333333"/>
  <path d="M24.33 9.01H25.27V13.19H24.33V9.01ZM24.33 7.17H25.27V8.04H24.33V7.17Z" fill="#333333"/>
  <path d="M27.04 13.19H26.09V9.01H27.04V9.67H27.06C27.31 9.13 27.76 8.89 28.5 8.89C29.48 8.89 29.91 9.45 29.91 10.4V13.19H28.97V10.66C28.97 10.09 28.81 9.72 28.15 9.72C27.5 9.72 27.04 10.17 27.04 10.82V13.19Z" fill="#333333"/>
  <path d="M33.37 13.28C32.22 13.28 31.37 12.45 31.37 11.12C31.37 9.86 32.13 8.89 33.33 8.89C34.74 8.89 35.2 9.95 35.2 11.32V11.61H32.31C32.37 12.17 32.75 12.58 33.4 12.58C33.92 12.58 34.37 12.39 34.69 12.17L35.03 12.8C34.6 13.12 34.01 13.28 33.37 13.28ZM34.28 10.95C34.26 10.35 33.97 9.58 33.31 9.58C32.71 9.58 32.35 10.3 32.31 10.95H34.28Z" fill="#333333"/>
  <path d="M36.55 6.67H37.5V11.53L39.02 9.01H40.13L38.58 11.38L40.33 13.19H39.21L37.5 11.5V13.19H36.55V6.67Z" fill="#333333"/>
  <path d="M41.58 9.01H42.44V8.12C42.44 7.15 42.83 6.67 43.87 6.67C44.16 6.67 44.42 6.74 44.59 6.81L44.42 7.58C44.31 7.55 44.14 7.5 43.97 7.5C43.42 7.5 43.39 7.91 43.39 8.33V9.01H44.36V9.75H43.39V13.19H42.44V9.75H41.58V9.01Z" fill="#333333"/>
  <path d="M45.11 11.12C45.11 9.72 46.04 8.89 47.28 8.89C48.52 8.89 49.46 9.72 49.46 11.12C49.46 12.5 48.52 13.28 47.28 13.28C46.04 13.28 45.11 12.5 45.11 11.12ZM48.52 11.12C48.52 10.28 48.03 9.72 47.28 9.72C46.53 9.72 46.04 10.28 46.04 11.12C46.04 11.95 46.53 12.47 47.28 12.47C48.03 12.47 48.52 11.95 48.52 11.12Z" fill="#333333"/>
  <path d="M50.25 9.01H51.17V9.67H51.19C51.44 9.13 51.95 8.91 52.62 8.91V9.86C51.73 9.86 51.19 10.09 51.19 11.29V13.19H50.25V9.01Z" fill="#333333"/>
  <path d="M54.82 13.28C53.66 13.28 52.81 12.45 52.81 11.12C52.81 9.86 53.58 8.89 54.77 8.89C56.18 8.89 56.64 9.95 56.64 11.32V11.61H53.76C53.81 12.17 54.2 12.58 54.85 12.58C55.36 12.58 55.82 12.39 56.13 12.17L56.47 12.8C56.05 13.12 55.45 13.28 54.82 13.28ZM55.73 10.95C55.7 10.35 55.42 9.58 54.76 9.58C54.15 9.58 53.79 10.3 53.76 10.95H55.73Z" fill="#333333"/>
  <path d="M57.74 9.01H58.66V9.94H58.69C58.83 9.34 59.3 8.89 60.04 8.89C61.02 8.89 61.45 9.45 61.45 10.4V13.19H60.51V10.66C60.51 10.09 60.35 9.72 59.69 9.72C59.04 9.72 58.69 10.17 58.69 10.82V13.19H57.74V9.01Z" fill="#333333"/>
  <path d="M65.01 12.3H64.98C64.74 12.85 64.29 13.3 63.55 13.3C62.57 13.3 61.96 12.43 61.96 11.09C61.96 9.75 62.57 8.89 63.55 8.89C64.29 8.89 64.74 9.34 64.98 9.88H65.01V9.01H65.95V13.19H65.01V12.3ZM63.78 12.47C64.55 12.47 65.01 11.78 65.01 11.09C65.01 10.4 64.55 9.72 63.78 9.72C63.02 9.72 62.91 10.35 62.91 11.09C62.91 11.84 63.02 12.47 63.78 12.47Z" fill="#333333"/>
  <path d="M67.4 9.01H68.32V9.94H68.35C68.49 9.34 68.96 8.89 69.7 8.89C70.68 8.89 71.11 9.45 71.11 10.4V13.19H70.17V10.66C70.17 10.09 70 9.72 69.35 9.72C68.69 9.72 68.35 10.17 68.35 10.82V13.19H67.4V9.01Z" fill="#333333"/>
  <path d="M74.63 13.28C73.47 13.28 72.63 12.45 72.63 11.12C72.63 9.86 73.39 8.89 74.59 8.89C76 8.89 76.46 9.95 76.46 11.32V11.61H73.57C73.63 12.17 74.01 12.58 74.66 12.58C75.18 12.58 75.63 12.39 75.95 12.17L76.29 12.8C75.87 13.12 75.27 13.28 74.63 13.28ZM75.55 10.95C75.52 10.35 75.24 9.58 74.58 9.58C73.97 9.58 73.62 10.3 73.57 10.95H75.55Z" fill="#333333"/>
  <path d="M77.55 9.01H78.47V9.94H78.5C78.64 9.34 79.11 8.89 79.85 8.89C80.83 8.89 81.26 9.45 81.26 10.4V13.19H80.32V10.66C80.32 10.09 80.15 9.72 79.5 9.72C78.85 9.72 78.5 10.17 78.5 10.82V13.19H77.55V9.01Z" fill="#333333"/>
  <path d="M83 9.01H83.94V13.19H83V9.01ZM83 7.17H83.94V8.04H83V7.17Z" fill="#333333"/>
  <path d="M84.99 9.01H85.91V9.67H85.93C86.18 9.13 86.69 8.91 87.35 8.91V9.86C86.47 9.86 85.93 10.09 85.93 11.29V13.19H84.99V9.01Z" fill="#333333"/>
  <path d="M89.1 9.01H90.04V13.19H89.1V9.01ZM89.1 7.17H90.04V8.04H89.1V7.17Z" fill="#333333"/>
  <path d="M93.46 13.28C92.25 13.28 91.31 12.45 91.31 11.09C91.31 9.72 92.25 8.89 93.46 8.89C94.66 8.89 95.6 9.72 95.6 11.09C95.6 12.45 94.66 13.28 93.46 13.28ZM93.46 12.47C94.11 12.47 94.65 11.89 94.65 11.09C94.65 10.28 94.11 9.72 93.46 9.72C92.8 9.72 92.25 10.28 92.25 11.09C92.25 11.89 92.8 12.47 93.46 12.47Z" fill="#333333"/>
  <path d="M97.17 9.01H98.09V9.94H98.12C98.25 9.34 98.73 8.89 99.47 8.89C100.45 8.89 100.88 9.45 100.88 10.4V13.19H99.93V10.66C99.93 10.09 99.77 9.72 99.12 9.72C98.46 9.72 98.12 10.17 98.12 10.82V13.19H97.17V9.01Z" fill="#333333"/>
  <path d="M103.82 17.41C101.01 17.41 98.95 15.36 98.95 12.54C98.95 9.7 101.01 7.67 103.82 7.67C106.64 7.67 108.7 9.7 108.7 12.54C108.7 15.36 106.64 17.41 103.82 17.41ZM103.82 16.57C106.13 16.57 107.81 14.84 107.81 12.54C107.81 10.22 106.13 8.5 103.82 8.5C101.52 8.5 99.85 10.22 99.85 12.54C99.85 14.84 101.52 16.57 103.82 16.57Z" fill="#333333"/>
  <path d="M109.98 17.29V16.68C110.34 16.68 110.53 16.57 110.53 16.15C110.53 15.89 110.52 15.33 110.52 14.89C110.52 13.91 110.52 13.01 110.52 12.04C110.52 11.06 110.52 10.16 110.52 9.19C110.52 8.73 110.52 8.2 110.52 7.96C110.52 7.54 110.32 7.42 109.98 7.42V6.81C110.25 6.81 110.57 6.8 110.85 6.8C111.13 6.8 111.42 6.81 111.7 6.81C112.22 6.81 112.77 6.79 113.29 6.79C113.79 6.79 114.31 6.8 114.84 6.8C116.93 6.8 118.39 7.74 118.39 9.54C118.39 11.24 116.72 12.38 114.56 12.38C114.21 12.38 113.88 12.35 113.6 12.35V12.39C113.99 12.61 116.2 15.5 116.66 16.06C117.01 16.46 117.5 16.68 118.1 16.68V17.29C117.86 17.29 117.63 17.28 117.38 17.28C117.15 17.28 116.91 17.29 116.65 17.29C116.21 17.29 115.76 17.3 115.34 17.3C114.9 17.3 114.46 17.29 114.05 17.29C113.61 16.78 112.48 15.41 111.89 14.69C111.1 13.74 110.89 13.5 110.43 13.5H110.39V14.89C110.39 15.33 110.39 15.91 110.39 16.15C110.39 16.57 110.58 16.68 110.94 16.68V17.29C110.66 17.29 110.32 17.28 110.01 17.28C109.7 17.28 109.36 17.29 109.08 17.29H109.98ZM113.57 11.71C114.82 11.71 117.36 11.58 117.36 9.5C117.36 7.53 115.01 7.44 113.58 7.44C113.19 7.44 112.71 7.44 112.42 7.46C111.93 7.48 111.47 7.49 111.47 7.91C111.47 8.47 111.44 12.02 111.44 13.08H113.57V11.71Z" fill="#333333"/>
  <path d="M10.91 22.97H11.83V23.89H11.85C11.98 23.29 12.45 22.85 13.19 22.85C14.18 22.85 14.61 23.41 14.61 24.36V27.15H13.67V24.62C13.67 24.05 13.5 23.68 12.85 23.68C12.19 23.68 11.85 24.13 11.85 24.78V27.15H10.91V22.97Z" fill="#333333"/>
  <path d="M17.59 27.24C16.43 27.24 15.58 26.41 15.58 25.08C15.58 23.83 16.35 22.85 17.54 22.85C18.95 22.85 19.41 23.91 19.41 25.28V25.57H16.53C16.59 26.13 16.97 26.54 17.62 26.54C18.13 26.54 18.59 26.35 18.91 26.13L19.24 26.75C18.82 27.08 18.23 27.24 17.59 27.24ZM18.5 24.91C18.48 24.31 18.19 23.54 17.53 23.54C16.93 23.54 16.57 24.26 16.53 24.91H18.5Z" fill="#333333"/>
  <path d="M20.43 6.63H110.02V7.06H20.43V6.63Z" fill="#333333"/>
  <path d="M10.43 17.41V27.24H10V17.41H10.43Z" fill="#333333"/>
  <path d="M118.58 17.41V27.24H118.15V17.41H118.58Z" fill="#333333"/>
  <path d="M20.43 17.41H110.02V17.84H20.43V17.41Z" fill="#333333"/>
</svg> 