<svg width="120" height="30" viewBox="0 0 120 30" fill="none" xmlns="http://www.w3.org/2000/svg">
  <path d="M71.03 8.44V12.82H71.13C71.7 11.23 72.38 9.97 74.35 9.97C76.55 9.97 77.37 11.34 77.37 13.91V24.89H71.03V15.39C71.03 14.34 70.67 13.7 69.48 13.7C68.03 13.7 67.57 14.66 67.57 16.44V24.89H61.23V8.44H71.03Z" fill="#333333"/>
  <path d="M77.06 8.44H83.4V24.89H77.06V8.44ZM83.4 3.22V7.38H77.06V3.22H83.4Z" fill="#333333"/>
  <path d="M99.32 24.89H93.88L93.78 23.51H93.67C92.69 24.89 91.5 25.42 89.72 25.42C85.54 25.42 84.14 22.25 84.14 16.76C84.14 10.71 86.99 9.97 89.3 9.97C90.87 9.97 91.92 10.5 92.8 11.34V3.22H99.32V24.89ZM93.04 16.97C93.04 14.88 92.69 13.7 91.5 13.7C90.3 13.7 89.95 14.88 89.95 16.76C89.95 18.75 90.3 19.93 91.5 19.93C92.69 19.93 93.04 18.75 93.04 16.97Z" fill="#333333"/>
  <path d="M112.42 18.22H105.8C105.8 19.61 106.58 20.04 107.67 20.04C108.96 20.04 110.09 19.51 111.38 18.75L111.85 23.09C110.32 24.57 108.16 25.42 105.52 25.42C100.45 25.42 99.05 21.83 99.05 16.87C99.05 11.02 101.79 9.97 105.8 9.97C110.12 9.97 112.42 12.19 112.42 17.4V18.22ZM106.61 15.18C106.61 14.13 106.26 13.28 105.38 13.28C104.4 13.28 104.19 14.13 104.08 15.18H106.61Z" fill="#333333"/>
  <path d="M9.48 6.71H19.89V8.12H15.31V26.72H14.07V8.12H9.48V6.71Z" fill="#333333"/>
  <path d="M21.46 9.67C21.46 8.59 22.15 7.9 23.23 7.9C24.31 7.9 25 8.59 25 9.67C25 10.75 24.31 11.44 23.23 11.44C22.15 11.44 21.46 10.75 21.46 9.67ZM21.77 13.46H24.69V26.72H21.77V13.46Z" fill="#333333"/>
  <path d="M35.98 13.46V26.72H33.5L33.28 24.92H33.19C32.54 26.29 31.32 27.07 29.72 27.07C27.31 27.07 26.22 25.07 26.22 21.35V13.46H29.14V21.44C29.14 23.22 29.62 24.05 30.71 24.05C31.8 24.05 32.99 23.04 32.99 20.97V13.46H35.98Z" fill="#333333"/>
  <path d="M38.13 13.46H40.7L41.01 15.35H41.09C42.05 13.72 43.3 13.11 44.75 13.11C47.33 13.11 49.1 15.4 49.1 19.83C49.1 24.74 46.78 27.07 44.15 27.07C42.84 27.07 41.8 26.51 41.01 25.19H40.92L41.05 27.07V31.81H38.13V13.46ZM41.05 21.92C41.05 22.62 41.18 23.22 41.44 23.65C41.8 24.31 42.45 24.65 43.19 24.65C44.71 24.65 46.03 23.22 46.03 19.97C46.03 17.22 45.07 15.53 43.2 15.53C42.05 15.53 41.05 16.66 41.05 18.09V21.92Z" fill="#333333"/>
  <path d="M51.2 13.46H54.21V26.72H51.2V13.46ZM51.2 8.16H54.21V11.09H51.2V8.16Z" fill="#333333"/>
  <path d="M58.18 13.11C58.13 14.37 57.91 16.18 57.74 17.53L57.04 22.97C56.87 24.4 56.34 26.72 56.34 26.72H53.41C53.41 26.72 54.3 21.61 54.65 17.57C54.74 16.18 54.78 14.01 54.82 13.46H57.3L57.52 15.58H57.56C58.26 13.89 59.3 13.11 60.48 13.11H58.18Z" fill="#333333"/>
</svg> 